<?xml version="1.0" encoding="iso-8859-1"?>
<!-- Generator: Adobe Illustrator 19.0.0, SVG Export Plug-In . SVG Version: 6.00 Build 0)  -->
<svg version="1.1" id="Layer_1" xmlns="http://www.w3.org/2000/svg" xmlns:xlink="http://www.w3.org/1999/xlink" x="0px" y="0px"
	 viewBox="0 0 488.4 488.4" style="enable-background:new 0 0 488.4 488.4;" xml:space="preserve">
<g>
	<path style="fill:#FFF8EF;" d="M402.468,320c-12,27.2-21.6,53.6-28,80h-58.4c4-28,9.6-52.8,16.8-80H402.468z"/>
	<path style="fill:#FFF8EF;" d="M314.468,416h56c-4,17.6-7.2,34.4-8.8,52l-48.8-24C312.868,433.6,313.668,424.8,314.468,416z"/>
	<path style="fill:#FFF8EF;" d="M298.468,416c-0.8,8.8-1.6,17.6-2.4,28l-20,13.6l-12,8V416H298.468z"/>
	<path style="fill:#FFF8EF;" d="M248.068,416v48.8l-32-21.6c-0.8-9.6-0.8-19.2-2.4-28h34.4V416z"/>
	<path style="fill:#FFF8EF;" d="M248.068,320v80h-36c-3.2-28-8.8-52.8-16-80H248.068z"/>
	<path style="fill:#FFF8EF;" d="M200.068,443.2l-48.8,24c-1.6-16.8-4.8-34.4-8.8-52h17.6v-16h-22.4c-7.2-26.4-16.8-52.8-28-80h69.6
		c7.2,27.2,12.8,52,16.8,80h-12v16h13.6C198.468,424.8,199.268,433.6,200.068,443.2z"/>
	<path style="fill:#FFF8EF;" d="M175.268,304h-72.8c-7.2-16-15.2-32-24.8-48h84c2.4,10.4,5.6,20,8,29.6
		C172.068,292,173.668,297.6,175.268,304z"/>
	<path style="fill:#FFF8EF;" d="M178.468,256h155.2c-2.4,8.8-4.8,16.8-7.2,24.8c-2.4,8-4,15.2-6.4,23.2h-16v16h12
		c-7.2,27.2-12.8,52-16,80h-36v-80h16v-16h-16v-32h-16v32h-56c-2.4-7.2-4-15.2-6.4-23.2C183.268,272.8,180.868,264.8,178.468,256z"
		/>
	<path style="fill:#FFF8EF;" d="M350.468,256h84c-8.8,16-16.8,32-24.8,48h-72.8c1.6-6.4,3.2-12,4.8-18.4
		C344.868,276,347.268,266.4,350.468,256z"/>
</g>
<polygon style="fill:#E94545;" points="56.068,224 456.068,224 456.068,240 448.068,240 344.068,240 168.068,240 64.068,240 
	56.068,240 "/>
<path style="fill:#FF6600;" d="M213.668,154.4c0,0.8-0.8,1.6-1.6,2.4c-0.8,2.4-2.4,4.8-4,7.2c-0.8,0.8-0.8,1.6-1.6,2.4
	c-0.8,1.6-2.4,3.2-3.2,4.8c-0.8,0.8-0.8,1.6-1.6,2.4c0,0,0,0,0,0.8l-22.4-22.4c12-10.4,27.2-17.6,43.2-20.8c-0.8,2.4-0.8,5.6-1.6,8
	c0,0.8-0.8,1.6-0.8,2.4c-0.8,1.6-1.6,4-2.4,5.6c0,0.8-0.8,2.4-0.8,3.2C216.068,151.2,215.268,152.8,213.668,154.4z"/>
<g>
	<path style="fill:#FF5400;" d="M168.068,163.2l22.4,22.4l0,0c-0.8,0.8-1.6,1.6-2.4,2.4c-1.6,0.8-2.4,2.4-4,3.2
		c-0.8,0.8-2.4,1.6-3.2,2.4c-0.8,0.8-2.4,1.6-3.2,1.6c-2.4,1.6-5.6,3.2-8,4.8c-0.8,0-0.8,0.8-1.6,0.8c-1.6,0.8-3.2,1.6-4.8,2.4
		c-0.8,0-1.6,0.8-2.4,0.8c-1.6,0.8-3.2,0.8-4.8,1.6c-0.8,0-1.6,0.8-2.4,0.8c-1.6,0-3.2,0.8-4.8,0.8
		C150.468,190.4,157.668,175.2,168.068,163.2z"/>
	<path style="fill:#FF5400;" d="M156.868,152c-13.6,16-22.4,35.2-26.4,56c-0.8,0-1.6,0-2.4,0c-23.2,0-44.8-8-61.6-22.4l61.6-62.4
		L156.868,152z"/>
	<path style="fill:#FF5400;" d="M54.468,50.4l22.4,21.6c-12,10.4-27.2,17.6-43.2,20.8c0.8-2.4,0.8-4.8,1.6-8c0-0.8,0.8-1.6,0.8-2.4
		c0.8-1.6,1.6-4,2.4-5.6c0-0.8,0.8-2.4,0.8-3.2c0.8-1.6,1.6-3.2,2.4-4.8c0-0.8,0.8-1.6,1.6-2.4c1.6-2.4,2.4-4.8,4-7.2
		c0.8-0.8,0.8-1.6,1.6-2.4c1.6-0.8,2.4-2.4,4-4C52.868,52,53.668,51.2,54.468,50.4L54.468,50.4z"/>
	<path style="fill:#FF5400;" d="M108.868,17.6c-3.2,16-10.4,30.4-20.8,43.2l-21.6-22.4l0,0c0.8-0.8,1.6-1.6,2.4-2.4
		c1.6-0.8,2.4-2.4,4-3.2c0.8,0,2.4-0.8,3.2-1.6s2.4-1.6,3.2-1.6c2.4-1.6,5.6-3.2,8-4c0.8,0,0.8-0.8,1.6-0.8c1.6-0.8,3.2-1.6,4.8-2.4
		c0.8,0,1.6-0.8,2.4-0.8c1.6-0.8,3.2-0.8,4.8-1.6c0.8,0,1.6-0.8,2.4-0.8C105.668,18.4,107.268,18.4,108.868,17.6z"/>
	<path style="fill:#FF5400;" d="M189.668,38.4l-61.6,62.4L99.268,72c13.6-16,22.4-35.2,26.4-56c0.8,0,1.6,0,2.4,0
		C151.268,16,172.868,24,189.668,38.4z"/>
	<path style="fill:#FF5400;" d="M116.868,112l-62.4,61.6c-16-18.4-23.2-41.6-22.4-64.8c20.8-3.2,40-12,56-26.4L116.868,112z"/>
</g>
<path style="fill:#FF6600;" d="M201.668,50.4c16,18.4,23.2,41.6,22.4,64.8c-20.8,3.2-40,12-56,26.4l-28.8-29.6L201.668,50.4z"/>
<path style="fill:#42210B;" d="M296.068,444c0.8-9.6,0.8-19.2,2.4-28h-34.4v48.8l12-8L296.068,444z M189.668,185.6L189.668,185.6
	l-21.6-22.4c-10.4,12-17.6,27.2-20.8,43.2c1.6,0,3.2-0.8,4.8-0.8c0.8,0,1.6-0.8,2.4-0.8c1.6-0.8,3.2-0.8,4.8-1.6
	c0.8,0,1.6-0.8,2.4-0.8c1.6-0.8,3.2-1.6,4.8-2.4c0.8,0,1.6-0.8,1.6-0.8c3.2-1.6,5.6-3.2,8-4.8c0.8-0.8,2.4-0.8,3.2-1.6
	s2.4-1.6,3.2-2.4c1.6-0.8,2.4-1.6,4-3.2C188.068,187.2,188.868,186.4,189.668,185.6z M168.068,140.8c16-13.6,35.2-22.4,56-26.4
	c0.8-23.2-7.2-46.4-22.4-64.8l-62.4,62.4L168.068,140.8z M208.868,164c1.6-2.4,3.2-4.8,4-7.2c0.8-0.8,0.8-1.6,1.6-2.4
	c0.8-1.6,1.6-3.2,2.4-4.8c0-0.8,0.8-1.6,0.8-3.2c0.8-1.6,1.6-4,2.4-5.6c0-0.8,0-1.6,0.8-2.4c0.8-2.4,1.6-4.8,1.6-8
	c-16,3.2-30.4,10.4-43.2,20.8l22.4,22.4c0,0,0,0,0-0.8c0.8-0.8,1.6-1.6,1.6-2.4c0.8-1.6,2.4-3.2,3.2-4.8
	C207.268,165.6,208.068,164.8,208.868,164z M212.068,400h36v-80h-52C203.268,347.2,208.868,372,212.068,400z M248.068,416h-34.4
	c0.8,8.8,1.6,17.6,2.4,28l32,21.6V416z M66.468,185.6c16.8,14.4,38.4,22.4,61.6,22.4c0.8,0,1.6,0,2.4,0c3.2-20.8,12-40,26.4-56
	l-28.8-28.8L66.468,185.6z M108.868,17.6c-1.6,0-3.2,0.8-4.8,0.8c-0.8,0-1.6,0-2.4,0.8c-1.6,0.8-3.2,0.8-4.8,1.6
	c-0.8,0-1.6,0.8-2.4,0.8c-1.6,0.8-3.2,1.6-4.8,2.4c-0.8,0-1.6,0.8-1.6,0.8c-3.2,1.6-5.6,2.4-8,4c-1.6,1.6-3.2,1.6-4,2.4
	s-2.4,1.6-3.2,2.4c-1.6,0.8-2.4,1.6-4,3.2c-0.8,0-1.6,0.8-2.4,1.6l0,0l22.4,22.4C98.468,48.8,105.668,33.6,108.868,17.6z
	 M125.668,16c-3.2,20.8-12,40-26.4,56l28.8,28.8l61.6-62.4c-16.8-14.4-38.4-22.4-61.6-22.4C127.268,16,126.468,16,125.668,16z
	 M102.468,304h72.8c-1.6-6.4-3.2-12-4.8-18.4c-2.4-9.6-5.6-19.2-8-29.6h-84.8C87.268,272,95.268,288,102.468,304z M109.668,320
	c12,27.2,21.6,53.6,28,80h22.4v16h-17.6c4,17.6,7.2,34.4,8.8,52l48.8-24c-0.8-9.6-0.8-18.4-1.6-27.2h-14.4v-16h12
	c-4-28-9.6-52.8-16.8-80h-69.6V320z M34.468,92.8c16-3.2,30.4-10.4,43.2-20.8l-23.2-21.6c0,0,0,0-0.8,0.8c0,0-0.8,0.8-0.8,1.6
	c-1.6,1.6-2.4,3.2-4,4.8c-0.8,0.8-1.6,1.6-1.6,2.4c-1.6,2.4-2.4,4.8-4,7.2c-0.8,0.8-0.8,1.6-1.6,2.4c-0.8,1.6-1.6,3.2-2.4,4.8
	c-0.8,0.8-0.8,1.6-0.8,3.2c-0.8,1.6-1.6,4-2.4,5.6c0,0.8,0,1.6-0.8,2.4C35.268,88,34.468,90.4,34.468,92.8z M32.068,109.6
	c-0.8,23.2,7.2,46.4,22.4,64.8l62.4-61.6l-28.8-29.6C72.068,96.8,52.868,106.4,32.068,109.6z M326.468,280.8c2.4-8,4.8-16,7.2-24.8
	h-155.2c2.4,8.8,4.8,16.8,7.2,24.8s4,15.2,6.4,23.2h56v-32h16v32h16v16h-16v80h36c3.2-28,8.8-52.8,16-80h-12v-16h16
	C322.468,296.8,324.868,288.8,326.468,280.8z M360.868,468c1.6-16.8,4.8-34.4,8.8-52h-56c-0.8,8.8-1.6,17.6-1.6,27.2L360.868,468z
	 M374.468,400c7.2-26.4,16.8-52.8,28-80h-69.6c-7.2,27.2-12.8,52-16.8,80H374.468z M409.668,304c7.2-16,15.2-32,24.8-48h-84
	c-2.4,10.4-5.6,20-8,29.6c-1.6,6.4-3.2,12.8-4.8,18.4H409.668z M456.068,240v-16h-400v16h8h104h176h104H456.068z M472.068,216v32
	c0,4-4,8-8,8h-11.2c-44.8,78.4-71.2,153.6-76.8,224.8c0,2.4-1.6,4.8-4,6.4s-4.8,1.6-7.2,0l-60-29.6l-44,29.6c-1.6,0-3.2,0.8-4.8,0.8
	c-1.6,0-3.2-0.8-4-1.6l-44-29.6l-60,29.6c-2.4,1.6-4.8,1.6-7.2,0s-4-4-4-6.4c-5.6-71.2-32-146.4-76.8-224.8h-12c-4.8,0-8-4-8-8v-32
	c0-4,3.2-8,8-8h22.4c-8-4.8-15.2-10.4-21.6-16.8c-24-24-35.2-57.6-32-88.8l0,0c0-3.2,0.8-7.2,1.6-10.4c0-0.8,0-1.6,0-2.4
	c0.8-2.4,1.6-5.6,1.6-8c0-1.6,0.8-2.4,1.6-4c0.8-2.4,1.6-4,2.4-5.6s0.8-3.2,1.6-4.8c0.8-1.6,1.6-3.2,2.4-4.8
	c0.8-1.6,1.6-3.2,2.4-4.8c0.8-0.8,1.6-2.4,2.4-4s1.6-3.2,2.4-4c0.8-1.6,2.4-3.2,4-4.8c0.8-0.8,1.6-2.4,2.4-3.2
	c2.4-2.4,4.8-5.6,7.2-8s4.8-4.8,8-7.2c0.8-0.8,2.4-1.6,4-3.2c1.6-0.8,2.4-2.4,4-3.2c1.6-0.8,3.2-1.6,4.8-3.2c1.6,0,2.4-0.8,3.2-1.6
	c2.4-1.6,4-2.4,6.4-3.2c0.8,0,1.6-0.8,2.4-0.8c2.4-0.8,4.8-2.4,7.2-3.2c0.8,0,1.6-0.8,2.4-0.8c2.4-0.8,4.8-1.6,7.2-2.4
	c0.8,0,1.6-0.8,3.2-0.8c2.4-0.8,4-0.8,6.4-1.6c1.6,0,2.4,0,4-0.8c1.6,0,4-0.8,5.6-0.8l0,0l0,0c3.2,0,7.2,0,10.4,0
	c29.6,0,58.4,12,79.2,32.8c24.8,24,35.2,57.6,32,88.8l0,0c0,3.2-0.8,7.2-1.6,10.4c0,0.8,0,1.6,0,2.4c-0.8,2.4-0.8,5.6-1.6,8
	c-0.8,0.8-0.8,2.4-1.6,4c-0.8,2.4-1.6,4-2.4,5.6c-0.8,1.6-0.8,3.2-1.6,4.8s-1.6,3.2-2.4,4.8c-0.8,1.6-1.6,3.2-2.4,4.8
	c-0.8,1.6-1.6,3.2-2.4,4.8c-0.8,1.6-1.6,3.2-2.4,4c-0.8,1.6-2.4,3.2-4,4.8c-0.8,0.8-1.6,2.4-2.4,3.2c-2.4,2.4-4.8,5.6-7.2,8
	s-4.8,4.8-8,7.2c-1.6,0.8-2.4,2.4-4,3.2s-2.4,2.4-4,3.2c-1.6,1.6-4,2.4-5.6,3.2h-0.8h279.2C468.068,208,472.068,212,472.068,216z"/>
<g>
	<path style="fill:#FF6600;" d="M136.068,24c-4,0-8,0-12,0.8c-4,17.6-12.8,33.6-24,47.2l28.8,28.8l60-60
		C172.868,30.4,155.268,24,136.068,24z"/>
	<path style="fill:#FF6600;" d="M75.268,48l12.8,12.8c8-9.6,13.6-20,17.6-31.2C94.468,33.6,84.068,40,75.268,48z"/>
	<path style="fill:#FF6600;" d="M51.268,87.2c8.8-4,17.6-8.8,25.6-15.2l-12-12C59.268,68,54.468,77.6,51.268,87.2z"/>
	<path style="fill:#FF6600;" d="M116.868,112l-28.8-28.8c-12,10.4-25.6,17.6-40,22.4c0,2.4,0,4,0,6.4c0,19.2,6.4,37.6,16.8,52
		L116.868,112z"/>
	<path style="fill:#FF6600;" d="M75.268,176c15.2,14.4,34.4,23.2,56.8,24c4-17.6,12.8-34.4,24.8-48l-28.8-28.8L75.268,176z"/>
	<path style="fill:#FF6600;" d="M168.068,163.2c-8.8,10.4-15.2,22.4-19.2,36c14.4-2.4,27.2-8,38.4-16L168.068,163.2z"/>
</g>
<g>
</g>
<g>
</g>
<g>
</g>
<g>
</g>
<g>
</g>
<g>
</g>
<g>
</g>
<g>
</g>
<g>
</g>
<g>
</g>
<g>
</g>
<g>
</g>
<g>
</g>
<g>
</g>
<g>
</g>
</svg>
